<svg width="55" height="55" viewBox="0 0 55 55" fill="none" xmlns="http://www.w3.org/2000/svg">
<path d="M47.4809 1.44201C47.2259 1.08401 46.7249 0.656006 45.7819 0.656006C42.0579 0.656006 33.4679 7.77201 29.4619 12.356C29.7649 12.543 30.0089 12.789 30.1879 13.079C33.9639 8.77101 42.3889 1.65601 45.7819 1.65601C46.3429 1.65601 46.5539 1.86401 46.6839 2.04501C46.8219 2.21701 46.8949 2.41401 46.9159 2.63401C47.0749 2.60501 47.2389 2.58401 47.4159 2.58401C47.5959 2.58401 47.7619 2.60501 47.9219 2.63401C47.8969 2.10101 47.6929 1.70401 47.4809 1.44201Z" fill="#464646"/>
<path d="M47.3521 1.39403C47.1571 1.23303 46.8691 1.24403 46.6871 1.42003C46.5031 1.59603 46.4821 1.88103 46.6361 2.08303C46.8121 2.31203 46.7731 2.68703 46.5211 3.19803C44.9041 6.47103 35.7481 12.594 30.2681 13.87C30.4641 14.145 30.6011 14.459 30.6751 14.792C36.5101 13.328 45.7031 7.11303 47.4181 3.64103C47.5191 3.43903 47.5921 3.25003 47.6441 3.07503C51.6841 7.68903 53.6411 18.796 52.8471 22.876C51.4551 25.27 46.3761 27 40.7111 27C38.0511 27 35.5661 26.616 33.3541 25.907C33.3351 26.001 33.3001 26.088 33.2711 26.178C33.3211 26.425 33.3371 26.678 33.3211 26.931C35.5641 27.619 38.0531 28 40.7111 28C46.8671 28 52.2321 26.064 53.7591 23.293C53.7821 23.249 53.8001 23.202 53.8101 23.153C54.7691 18.533 52.3841 5.54503 47.3521 1.39403Z" fill="#464646"/>
<path d="M7.30659 3.49401C7.06159 2.88801 7.08659 2.41401 7.40259 2.02001C7.51359 1.86401 7.72559 1.65601 8.28659 1.65601C11.6696 1.65601 20.0636 8.73501 23.8596 13.049C24.0106 12.738 24.2196 12.458 24.4966 12.24C20.4506 7.65301 11.9796 0.656006 8.28659 0.656006C7.34259 0.656006 6.84159 1.08401 6.60559 1.41801C6.23559 1.87701 5.89559 2.67401 6.37959 3.86901C7.97359 7.80601 17.4286 13.419 23.2536 15.307C23.2476 14.971 23.2956 14.634 23.4056 14.32C17.6426 12.451 8.69159 6.91401 7.30659 3.49401Z" fill="#464646"/>
<path d="M20.5888 25.958C18.4068 26.636 15.9648 27 13.3578 27C7.6928 27 2.6128 25.27 1.2218 22.875C0.428802 18.795 2.3858 7.68703 6.4248 3.07403C6.4658 3.21403 6.5328 3.36703 6.6038 3.52303C6.5298 2.74203 6.7738 1.93303 7.3368 1.39003C7.1538 1.24803 6.8988 1.24404 6.7158 1.39304C1.6848 5.54304 -0.700198 18.533 0.257802 23.153C0.267802 23.202 0.285802 23.249 0.309802 23.293C1.8358 26.064 7.2008 28 13.3568 28C13.3558 28 13.3578 28 13.3568 28C16.0268 28 18.5458 27.637 20.8018 26.947C20.6718 26.637 20.5988 26.301 20.5888 25.958Z" fill="#464646"/>
<path d="M39.0687 27.447C43.9787 31.288 47.8667 37.811 49.6517 45.885L42.2027 43.777L37.5387 51.926C36.1667 43.113 32.0437 33.034 28.5837 28.236C28.1917 28.277 27.7997 28.287 27.4077 28.298C30.9677 32.864 35.6277 44.314 36.7497 53.506L36.9317 55L42.6837 44.953L50.9637 47.296L50.8027 46.493C49.1697 38.385 45.4697 31.706 40.6997 27.499C40.1587 27.499 39.6147 27.48 39.0687 27.447Z" fill="#464646"/>
<path d="M16.5486 51.927L11.8836 43.778L4.43556 45.886C6.22056 37.811 10.1106 31.286 15.0206 27.447C14.4736 27.48 13.9286 27.499 13.3866 27.5C8.61656 31.707 4.91656 38.386 3.28456 46.494L3.12256 47.297L11.4036 44.954L17.1556 55L17.3376 53.506C18.4596 44.316 23.1166 32.872 26.6766 28.303C26.2846 28.294 25.8926 28.28 25.5016 28.24C22.0416 33.042 17.9206 43.116 16.5486 51.927Z" fill="#464646"/>
<path d="M26.9994 28.819C24.8024 28.819 22.5774 28.349 20.3864 27.423L20.0464 27.28L20.0834 26.913C20.5004 22.786 21.6724 18.093 23.7714 12.145L23.8524 11.916L24.0834 11.838C26.0154 11.187 27.9834 11.187 29.9154 11.838L30.1454 11.916L30.2264 12.145C32.3254 18.092 33.4974 22.785 33.9144 26.913L33.9514 27.28L33.6114 27.423C31.4214 28.35 29.1964 28.819 26.9994 28.819ZM21.1174 26.645C25.0314 28.206 28.9704 28.205 32.8814 26.645C32.4464 22.741 31.3244 18.295 29.3654 12.713C27.7914 12.231 26.2084 12.231 24.6324 12.713C22.6744 18.295 21.5514 22.741 21.1174 26.645Z" fill="#464646"/>
</svg>
