<svg width="54" height="54" viewBox="0 0 54 54" fill="none" xmlns="http://www.w3.org/2000/svg">
<path d="M38.3052 5.54302C38.2632 5.50002 38.2122 5.45102 38.1612 5.40302C38.4512 6.04602 38.6152 6.58202 38.5712 6.87201C38.5712 6.87201 38.3342 6.74502 37.9252 6.59202C38.0022 6.69502 38.0562 6.78602 38.0712 6.85702C37.9722 10.301 31.9232 12.257 27.0582 13.185C27.4422 12.955 27.8662 12.691 28.3262 12.402C28.8692 12.061 29.3512 11.757 29.6472 11.603C33.1922 9.74102 34.3442 7.56902 34.6822 6.05002C34.3432 6.05802 33.9852 6.09501 33.6192 6.15001C33.2382 7.43701 32.1432 9.16301 29.1832 10.716C28.8722 10.88 28.3662 11.196 27.7952 11.555C27.0212 12.041 25.9242 12.73 25.2742 13.025C25.2642 13.018 25.2492 13.015 25.2382 13.008C25.1732 13.112 25.1172 13.21 25.0562 13.313H30.9042C34.9422 12.161 38.9762 10.188 39.0712 6.88601C39.0832 6.51301 38.8452 6.09902 38.3052 5.54302Z" fill="#464646"/>
<path d="M36.1479 1.303C35.1439 0.136 34.5939 0 34.2679 0C25.8509 0 23.0449 10.165 22.3779 13.313H23.3989C24.0909 10.146 26.7449 1 34.2669 1C34.3679 1.005 34.7979 1.224 35.5629 2.163C36.6229 3.46 37.5189 5.079 37.8939 6.046C37.1999 5.808 36.1519 5.546 34.8889 5.546C33.0579 5.546 31.3149 6.09 29.7059 7.161C27.8979 8.366 25.7429 11.113 24.4889 13.276C24.4539 13.286 24.4069 13.3 24.3649 13.312H25.6399C26.8399 11.369 28.7229 9.018 30.2609 7.993C31.7019 7.033 33.2589 6.546 34.8889 6.546C36.8979 6.546 38.3189 7.304 38.3319 7.311L38.9589 7.651L39.0649 6.947C39.2339 5.837 37.4399 2.806 36.1479 1.303Z" fill="#464646"/>
<path d="M21.0212 13.313C20.9592 13.21 20.9042 13.113 20.8392 13.008C20.8282 13.014 20.8132 13.018 20.8032 13.025C20.1532 12.73 19.0562 12.042 18.2822 11.555C17.7122 11.197 17.2052 10.88 16.8942 10.716C13.9342 9.16299 12.8392 7.43699 12.4582 6.14999C12.0922 6.09499 11.7342 6.05799 11.3952 6.04999C11.7322 7.56899 12.8842 9.73999 16.4302 11.603C16.7262 11.757 17.2082 12.061 17.7512 12.402C18.2122 12.692 18.6372 12.957 19.0222 13.187C14.1572 12.26 8.10521 10.31 8.00521 6.87999C8.02121 6.80199 8.08621 6.69799 8.17221 6.58399C7.74921 6.74099 7.50521 6.87299 7.50521 6.87299C7.46121 6.58299 7.62521 6.04599 7.91521 5.40399C7.86521 5.45199 7.81321 5.50099 7.77121 5.54399C7.23121 6.09999 6.99421 6.51399 7.00421 6.88699C7.09921 10.188 11.1342 12.162 15.1712 13.314L21.0212 13.313Z" fill="#464646"/>
<path d="M20.437 13.313H21.712C21.67 13.301 21.623 13.287 21.588 13.277C20.334 11.114 18.179 8.367 16.371 7.162C14.763 6.091 13.019 5.547 11.188 5.547C9.92499 5.547 8.87699 5.809 8.18299 6.047C8.55799 5.08 9.45399 3.461 10.514 2.164C11.279 1.224 11.709 1.005 11.809 1C19.326 1 21.984 10.147 22.678 13.313H23.699C23.033 10.165 20.229 0 11.809 0C11.483 0 10.933 0.136 9.92899 1.303C8.63699 2.806 6.84299 5.837 7.01099 6.947L7.11799 7.654L7.74499 7.31C7.75899 7.302 9.16299 6.546 11.187 6.546C12.817 6.546 14.374 7.033 15.815 7.993C17.354 9.018 19.237 11.369 20.437 13.313Z" fill="#464646"/>
<path d="M37 25H0V13H37V25ZM1 24H36V14H1V24Z" fill="#464646"/>
<path d="M49 25H36V13H49V25ZM37 24H48V14H37V24Z" fill="#464646"/>
<path d="M35 24V30H36V25H46V30H47V24H35Z" fill="#464646"/>
<path d="M40 30V25H42V30H43V24H39V30H40Z" fill="#464646"/>
<path d="M36 30V24L35 25V30H36Z" fill="#464646"/>
<path d="M3 51V26H2V52H18V51H3Z" fill="#464646"/>
<path d="M16 51V25H22V30H23V24H15V52H18V51H16Z" fill="#464646"/>
<path d="M19 31V54H54V31H19ZM53 53H43V32H53V53ZM20 53V32H42V53H20Z" fill="#464646"/>
<path d="M53 39.6V49.2L51.417 53H47.417L53 39.6ZM54 34.6L52.077 39.215L46.494 52.615L45.917 54H47.417H51.417H52.084L52.34 53.385L53.923 49.585L54 49.4V49.2V39.6V34.6Z" fill="#464646"/>
<path d="M44 15V24H41V15H40V25H45V15H44Z" fill="#464646"/>
<path d="M23.077 33L20 41V33H19V41V46.386L20.934 41.359L24.148 33H23.077Z" fill="#464646"/>
<path d="M32.0772 33L24.3852 53H20.3852L28.0772 33H27.0062L19.4512 52.641L18.9292 54H20.3852H24.3852H25.0722L25.3182 53.359L33.1482 33H32.0772Z" fill="#464646"/>
<path d="M41.0002 53H38.3852L41.0002 46.2V43.415L37.4512 52.641L36.9292 54H38.3852H41.0002V53Z" fill="#464646"/>
<path d="M41.0002 33.199L33.3852 53H29.3852L37.0772 33H36.0062L28.4512 52.641L27.9292 54H29.3852H33.3852H34.0722L34.3182 53.359L41.0002 35.985V33.199Z" fill="#464646"/>
<path d="M22 15V24H15V15H14V25H23V15H22Z" fill="#464646"/>
<path d="M50.077 33L43 51.4V41L46.077 33H45.005L42.067 40.641L42 40.814V54H43.216L43.934 51.947L51.148 33H50.077Z" fill="#464646"/>
</svg>
