<svg width="31" height="25" viewBox="0 0 31 25" fill="none" xmlns="http://www.w3.org/2000/svg">
<path fill-rule="evenodd" clip-rule="evenodd" d="M19 2.08545C19 1.80931 19.1478 1.58545 19.3302 1.58545H25.6698C25.8522 1.58545 26 1.80931 26 2.08545C26 2.36159 25.8522 2.58545 25.6698 2.58545H19.3302C19.1478 2.58545 19 2.36159 19 2.08545Z" fill="#6B6B6B"/>
<path fill-rule="evenodd" clip-rule="evenodd" d="M12 2.08545C12 1.80931 12.1484 1.58545 12.3314 1.58545H18.6686C18.8516 1.58545 19 1.80931 19 2.08545C19 2.36159 18.8516 2.58545 18.6686 2.58545H12.3314C12.1484 2.58545 12 2.36159 12 2.08545Z" fill="#6B6B6B"/>
<path fill-rule="evenodd" clip-rule="evenodd" d="M4 2.08545C4 1.80931 4.14881 1.58545 4.33238 1.58545H10.6676C10.8512 1.58545 11 1.80931 11 2.08545C11 2.36159 10.8512 2.58545 10.6676 2.58545H4.33238C4.14881 2.58545 4 2.36159 4 2.08545Z" fill="#6B6B6B"/>
<path fill-rule="evenodd" clip-rule="evenodd" d="M0.632653 2.22204H3.36571C3.54042 2.22204 3.68204 2.07953 3.68204 1.90374C3.68204 1.72795 3.54042 1.58545 3.36571 1.58545H0.544082C0.242849 1.58545 0 1.82981 0 2.13292V24.038C0 24.3411 0.242852 24.5854 0.544082 24.5854H30.4559C30.7571 24.5854 31 24.3411 31 24.038V2.13292C31 1.82981 30.7572 1.58545 30.4559 1.58545H27.552C27.3773 1.58545 27.2357 1.72795 27.2357 1.90374C27.2357 2.07953 27.3773 2.22204 27.552 2.22204H30.3673V23.9489H0.632653V2.22204Z" fill="#6B6B6B"/>
<path fill-rule="evenodd" clip-rule="evenodd" d="M0 7.08545C0 6.80931 0.141624 6.58545 0.316327 6.58545H30.6837C30.8584 6.58545 31 6.80931 31 7.08545C31 7.36159 30.8584 7.58545 30.6837 7.58545H0.316327C0.141624 7.58545 0 7.36159 0 7.08545Z" fill="#6B6B6B"/>
<path fill-rule="evenodd" clip-rule="evenodd" d="M2.6383 10.2237V11.9472H4.3617V10.2237H2.6383ZM2 10.1535C2 9.84858 2.2461 9.58545 2.56809 9.58545H4.43192C4.73687 9.58545 5 9.83155 5 10.1535V12.0174C5 12.3277 4.74222 12.5854 4.43192 12.5854H2.56809C2.26313 12.5854 2 12.3394 2 12.0174V10.1535Z" fill="#6B6B6B"/>
<path fill-rule="evenodd" clip-rule="evenodd" d="M7.6383 10.2237V11.9472H9.3617V10.2237H7.6383ZM7 10.1535C7 9.84858 7.2461 9.58545 7.56809 9.58545H9.43192C9.73687 9.58545 10 9.83155 10 10.1535V12.0174C10 12.3223 9.7539 12.5854 9.43192 12.5854H7.56809C7.26313 12.5854 7 12.3394 7 12.0174V10.1535Z" fill="#6B6B6B"/>
<path fill-rule="evenodd" clip-rule="evenodd" d="M11.6383 10.2237V11.9472H13.3617V10.2237H11.6383ZM11 10.1535C11 9.84858 11.2461 9.58545 11.5681 9.58545H13.4319C13.7369 9.58545 14 9.83155 14 10.1535V12.0174C14 12.3223 13.7539 12.5854 13.4319 12.5854H11.5681C11.2631 12.5854 11 12.3394 11 12.0174V10.1535Z" fill="#6B6B6B"/>
<path fill-rule="evenodd" clip-rule="evenodd" d="M16.6383 10.2237V11.9472H18.3617V10.2237H16.6383ZM16 10.1535C16 9.84858 16.2461 9.58545 16.5681 9.58545H18.4319C18.7369 9.58545 19 9.83155 19 10.1535V12.0174C19 12.3277 18.7422 12.5854 18.4319 12.5854H16.5681C16.2631 12.5854 16 12.3394 16 12.0174V10.1535Z" fill="#6B6B6B"/>
<path fill-rule="evenodd" clip-rule="evenodd" d="M20.6383 10.2237V11.9472H22.3617V10.2237H20.6383ZM20 10.1535C20 9.84858 20.2461 9.58545 20.5681 9.58545H22.4319C22.7369 9.58545 23 9.83155 23 10.1535V12.0174C23 12.3277 22.7422 12.5854 22.4319 12.5854H20.5681C20.2631 12.5854 20 12.3394 20 12.0174V10.1535Z" fill="#6B6B6B"/>
<path fill-rule="evenodd" clip-rule="evenodd" d="M25.6383 10.2237V11.9472H27.3617V10.2237H25.6383ZM25 10.1535C25 9.84858 25.2461 9.58545 25.5681 9.58545H27.4319C27.7369 9.58545 28 9.83155 28 10.1535V12.0174C28 12.3223 27.7539 12.5854 27.4319 12.5854H25.5681C25.2631 12.5854 25 12.3394 25 12.0174V10.1535Z" fill="#6B6B6B"/>
<path fill-rule="evenodd" clip-rule="evenodd" d="M2.6383 14.2237V15.9472H4.3617V14.2237H2.6383ZM2 14.1535C2 13.8486 2.2461 13.5854 2.56809 13.5854H4.43192C4.73687 13.5854 5 13.8315 5 14.1535V16.0174C5 16.3393 4.73687 16.5854 4.43192 16.5854H2.56809C2.26313 16.5854 2 16.3393 2 16.0174V14.1535Z" fill="#6B6B6B"/>
<path fill-rule="evenodd" clip-rule="evenodd" d="M7.6383 14.2237V15.9472H9.3617V14.2237H7.6383ZM7 14.1535C7 13.8486 7.2461 13.5854 7.56809 13.5854H9.43192C9.73687 13.5854 10 13.8315 10 14.1535V16.0174C10 16.334 9.74861 16.5854 9.43192 16.5854H7.56809C7.26313 16.5854 7 16.3393 7 16.0174V14.1535Z" fill="#6B6B6B"/>
<path fill-rule="evenodd" clip-rule="evenodd" d="M11.6383 14.2237V15.9472H13.3617V14.2237H11.6383ZM11 14.1535C11 13.8486 11.2461 13.5854 11.5681 13.5854H13.4319C13.7369 13.5854 14 13.8315 14 14.1535V16.0174C14 16.334 13.7486 16.5854 13.4319 16.5854H11.5681C11.2631 16.5854 11 16.3393 11 16.0174V14.1535Z" fill="#6B6B6B"/>
<path fill-rule="evenodd" clip-rule="evenodd" d="M16.6383 14.2237V15.9472H18.3617V14.2237H16.6383ZM16 14.1535C16 13.8486 16.2461 13.5854 16.5681 13.5854H18.4319C18.7369 13.5854 19 13.8315 19 14.1535V16.0174C19 16.3393 18.7369 16.5854 18.4319 16.5854H16.5681C16.2631 16.5854 16 16.3394 16 16.0174V14.1535Z" fill="#6B6B6B"/>
<path fill-rule="evenodd" clip-rule="evenodd" d="M20.6383 14.2237V15.9472H22.3617V14.2237H20.6383ZM20 14.1535C20 13.8486 20.2461 13.5854 20.5681 13.5854H22.4319C22.7369 13.5854 23 13.8315 23 14.1535V16.0174C23 16.3393 22.7369 16.5854 22.4319 16.5854H20.5681C20.2631 16.5854 20 16.3394 20 16.0174V14.1535Z" fill="#6B6B6B"/>
<path fill-rule="evenodd" clip-rule="evenodd" d="M25.6383 14.2237V15.9472H27.3617V14.2237H25.6383ZM25 14.1535C25 13.8486 25.2461 13.5854 25.5681 13.5854H27.4319C27.7369 13.5854 28 13.8315 28 14.1535V16.0174C28 16.334 27.7486 16.5854 27.4319 16.5854H25.5681C25.2631 16.5854 25 16.3394 25 16.0174V14.1535Z" fill="#6B6B6B"/>
<path fill-rule="evenodd" clip-rule="evenodd" d="M2.6383 19.2237V20.9472H4.3617V19.2237H2.6383ZM2 19.1535C2 18.8486 2.2461 18.5854 2.56809 18.5854H4.43192C4.73687 18.5854 5 18.8315 5 19.1535V21.0174C5 21.3394 4.73687 21.5854 4.43192 21.5854H2.56809C2.26313 21.5854 2 21.3394 2 21.0174V19.1535Z" fill="#6B6B6B"/>
<path fill-rule="evenodd" clip-rule="evenodd" d="M7.6383 19.2237V20.9472H9.3617V19.2237H7.6383ZM7 19.1535C7 18.8486 7.2461 18.5854 7.56809 18.5854H9.43192C9.73687 18.5854 10 18.8315 10 19.1535V21.0174C10 21.3341 9.7486 21.5854 9.43192 21.5854H7.56809C7.26313 21.5854 7 21.3394 7 21.0174V19.1535Z" fill="#6B6B6B"/>
<path fill-rule="evenodd" clip-rule="evenodd" d="M11.6383 19.2237V20.9472H13.3617V19.2237H11.6383ZM11 19.1535C11 18.8486 11.2461 18.5854 11.5681 18.5854H13.4319C13.7369 18.5854 14 18.8315 14 19.1535V21.0174C14 21.3341 13.7486 21.5854 13.4319 21.5854H11.5681C11.2631 21.5854 11 21.3394 11 21.0174V19.1535Z" fill="#6B6B6B"/>
<path fill-rule="evenodd" clip-rule="evenodd" d="M16.6383 19.2237V20.9472H18.3617V19.2237H16.6383ZM16 19.1535C16 18.8486 16.2461 18.5854 16.5681 18.5854H18.4319C18.7369 18.5854 19 18.8315 19 19.1535V21.0174C19 21.3394 18.7369 21.5854 18.4319 21.5854H16.5681C16.2631 21.5854 16 21.3394 16 21.0174V19.1535Z" fill="#6B6B6B"/>
<path fill-rule="evenodd" clip-rule="evenodd" d="M3.66007 1.20083V3.97006H4.33993V1.20083H3.66007ZM3 1.10237C3 0.815516 3.24677 0.585449 3.55446 0.585449H4.44554C4.75323 0.585449 5 0.815516 5 1.10237V4.06853C5 4.07422 4.99983 4.07991 4.99949 4.08559C4.98412 4.34354 4.75608 4.58545 4.43894 4.58545H3.55446C3.24677 4.58545 3 4.35538 3 4.06853V1.10237Z" fill="#6B6B6B"/>
<path fill-rule="evenodd" clip-rule="evenodd" d="M10.6601 1.20083V3.97006H11.3399V1.20083H10.6601ZM10 1.10237C10 0.815515 10.2468 0.585449 10.5545 0.585449H11.4455C11.7532 0.585449 12 0.815516 12 1.10237V4.06853C12 4.34334 11.7595 4.58545 11.4455 4.58545H10.5545C10.2468 4.58545 10 4.35538 10 4.06853V1.10237Z" fill="#6B6B6B"/>
<path fill-rule="evenodd" clip-rule="evenodd" d="M18.6601 1.20083V3.97006H19.3399V1.20083H18.6601ZM18 1.10237C18 0.815516 18.2468 0.585449 18.5545 0.585449H19.4455C19.7532 0.585449 20 0.815516 20 1.10237V4.06853C20 4.34334 19.7595 4.58545 19.4455 4.58545H18.5545C18.2468 4.58545 18 4.35538 18 4.06853V1.10237Z" fill="#6B6B6B"/>
<path fill-rule="evenodd" clip-rule="evenodd" d="M25.6601 1.20083V3.97006H26.3399V1.20083H25.6601ZM25 1.10237C25 0.815513 25.2468 0.585449 25.5545 0.585449H26.4455C26.7532 0.585449 27 0.815516 27 1.10237V4.06853C27 4.34334 26.7595 4.58545 26.4455 4.58545H25.5545C25.2468 4.58545 25 4.35539 25 4.06853V1.10237Z" fill="#6B6B6B"/>
</svg>
