<svg width="35" height="22" viewBox="0 0 35 22" fill="none" xmlns="http://www.w3.org/2000/svg">
<path fill-rule="evenodd" clip-rule="evenodd" d="M0 1.07377C0 0.756886 0.256465 0.5 0.572831 0.5H6.93126C7.24763 0.5 7.50409 0.756886 7.50409 1.07377C7.50409 1.39066 7.24763 1.64754 6.93126 1.64754H1.14566V6.46721C1.14566 6.7841 0.889198 7.04098 0.572831 7.04098C0.256465 7.04098 0 6.7841 0 6.46721V1.07377ZM9.96727 1.07377C9.96727 0.756886 10.2237 0.5 10.5401 0.5H22.054C22.3704 0.5 22.6268 0.756886 22.6268 1.07377V1.2459H24.1735C24.1788 1.2459 24.1841 1.24598 24.1894 1.24612C26.3912 1.30739 28.2141 2.97239 28.445 5.09335C30.4671 5.607 31.8841 7.73137 31.9064 10.139C32.6606 10.3661 33.2949 10.8452 33.7779 11.4348C33.9835 11.6757 34.1656 11.9381 34.3223 12.2182C34.3483 12.2549 34.37 12.2948 34.3868 12.3372C34.7838 13.0938 35 13.9717 35 14.9016V17.4262C35 17.7431 34.7435 18 34.4272 18H32.9951C32.6787 18 32.4223 17.7431 32.4223 17.4262C32.4223 17.1093 32.6787 16.8525 32.9951 16.8525H33.8543V14.9016C33.8543 14.2543 33.7251 13.6513 33.4936 13.123H31.8494C31.5331 13.123 31.2766 12.8661 31.2766 12.5492C31.2766 12.2323 31.5331 11.9754 31.8494 11.9754H32.7272C32.3199 11.546 31.8288 11.2589 31.2908 11.1721H24.9755C24.6591 11.1721 24.4026 10.9152 24.4026 10.5984V7.95902C24.4026 7.64213 24.6591 7.38525 24.9755 7.38525H28.4124C28.7288 7.38525 28.9853 7.64213 28.9853 7.95902C28.9853 8.2759 28.7288 8.53279 28.4124 8.53279H25.5483V10.0246H30.7583C30.685 7.74425 29.1616 6.12295 27.4959 6.12295H22.6268V16.9672H23.7291C23.9039 14.815 25.7031 13.123 27.8969 13.123C30.2064 13.123 32.0786 14.9982 32.0786 17.3115C32.0786 19.6247 30.2064 21.5 27.8969 21.5C25.8617 21.5 24.1661 20.0437 23.792 18.1148H13.0983C12.7242 20.0437 11.0286 21.5 8.99345 21.5C6.95827 21.5 5.26267 20.0437 4.88861 18.1148H0.572831C0.256465 18.1148 0 17.8579 0 17.541V9.27869C0 8.9618 0.256465 8.70492 0.572831 8.70492C0.889198 8.70492 1.14566 8.9618 1.14566 9.27869V16.9672H4.82571C5.00051 14.815 6.79971 13.123 8.99345 13.123C11.1872 13.123 12.9864 14.815 13.1612 16.9672H21.4812V1.64754H10.5401C10.2237 1.64754 9.96727 1.39066 9.96727 1.07377ZM22.6268 4.97541H27.2691C26.9947 3.55665 25.7237 2.44033 24.1652 2.39344H22.6268V4.97541ZM8.99345 14.2705C7.31671 14.2705 5.95745 15.632 5.95745 17.3115C5.95745 18.991 7.31671 20.3525 8.99345 20.3525C10.6702 20.3525 12.0295 18.991 12.0295 17.3115C12.0295 15.632 10.6702 14.2705 8.99345 14.2705ZM27.8969 14.2705C26.2201 14.2705 24.8609 15.632 24.8609 17.3115C24.8609 18.991 26.2201 20.3525 27.8969 20.3525C29.5736 20.3525 30.9329 18.991 30.9329 17.3115C30.9329 15.632 29.5736 14.2705 27.8969 14.2705ZM8.99345 16.7377C8.67709 16.7377 8.42062 16.9946 8.42062 17.3115C8.42062 17.6284 8.67709 17.8852 8.99345 17.8852C9.30982 17.8852 9.56629 17.6284 9.56629 17.3115C9.56629 16.9946 9.30982 16.7377 8.99345 16.7377ZM7.27496 17.3115C7.27496 16.3608 8.04436 15.5902 8.99345 15.5902C9.94255 15.5902 10.7119 16.3608 10.7119 17.3115C10.7119 18.2621 9.94255 19.0328 8.99345 19.0328C8.04436 19.0328 7.27496 18.2621 7.27496 17.3115ZM27.8969 16.7377C27.5805 16.7377 27.3241 16.9946 27.3241 17.3115C27.3241 17.6284 27.5805 17.8852 27.8969 17.8852C28.2133 17.8852 28.4697 17.6284 28.4697 17.3115C28.4697 16.9946 28.2133 16.7377 27.8969 16.7377ZM26.1784 17.3115C26.1784 16.3608 26.9478 15.5902 27.8969 15.5902C28.846 15.5902 29.6154 16.3608 29.6154 17.3115C29.6154 18.2621 28.846 19.0328 27.8969 19.0328C26.9478 19.0328 26.1784 18.2621 26.1784 17.3115Z" fill="#6B6B6B"/>
</svg>
