<svg width="30" height="30" viewBox="0 0 30 30" fill="none" xmlns="http://www.w3.org/2000/svg">
<path d="M10.236 14.9235L9.61346 19.4124C9.59055 19.5779 9.61303 19.7465 9.67848 19.9002C9.74393 20.0539 9.8499 20.187 9.98508 20.2851C10.1203 20.3833 10.2796 20.443 10.446 20.4577C10.6124 20.4724 10.7797 20.4416 10.93 20.3686L14.9935 18.3897L19.0704 20.3691C19.2208 20.4419 19.3881 20.4725 19.5545 20.4577C19.7209 20.4428 19.8801 20.3831 20.0152 20.2848C20.1503 20.1866 20.2562 20.0535 20.3216 19.8997C20.387 19.746 20.4094 19.5774 20.3865 19.4119L19.7603 14.9359L22.9019 11.6707C23.0177 11.5503 23.0987 11.4007 23.1361 11.2379C23.1736 11.075 23.1661 10.9051 23.1145 10.7462C23.0629 10.5873 22.9691 10.4454 22.8431 10.3356C22.7172 10.2258 22.5637 10.1523 22.3993 10.123L17.9484 9.3356L15.8134 5.33843C15.7348 5.19102 15.6175 5.06776 15.4743 4.98181C15.331 4.89586 15.167 4.85046 15 4.85046C14.8329 4.85046 14.6689 4.89586 14.5257 4.98181C14.3824 5.06776 14.2651 5.19102 14.1865 5.33843L12.062 9.32782L7.60064 10.123C7.43617 10.1523 7.28276 10.2258 7.15679 10.3356C7.03083 10.4454 6.93704 10.5873 6.88543 10.7462C6.83383 10.9051 6.82635 11.075 6.8638 11.2379C6.90125 11.4007 6.98221 11.5503 7.09805 11.6707L10.236 14.9235ZM12.2277 10.2507C12.365 10.2263 12.4949 10.1709 12.6076 10.0888C12.7203 10.0067 12.8129 9.90007 12.8782 9.77689L14.9862 5.77924L15.4 5.55893L14.9867 5.77957L17.1217 9.77674C17.1871 9.90006 17.2798 10.0068 17.3927 10.0889C17.5056 10.171 17.6358 10.2263 17.7733 10.2506L22.2264 11.0205L19.0852 14.2857C18.9879 14.3861 18.9149 14.5073 18.8716 14.6402C18.8284 14.7731 18.8161 14.9141 18.8357 15.0525L19.4794 19.5253L15.403 17.5464C15.2776 17.4849 15.1398 17.453 15.0001 17.453C14.8605 17.453 14.7227 17.4849 14.5973 17.5464L10.542 19.5409L11.165 15.0511C11.1843 14.913 11.1719 14.7722 11.1286 14.6396C11.0854 14.507 11.0125 14.386 10.9155 14.2857L7.7655 11.0457L12.2277 10.2507Z" fill="#454545"/>
<path d="M26.3905 15.3744C26.6072 14.4846 26.7173 13.5721 26.7186 12.6562C26.7186 9.54824 25.484 6.56753 23.2863 4.36984C21.0886 2.17215 18.1079 0.9375 14.9999 0.9375C11.8919 0.9375 8.91115 2.17215 6.71346 4.36984C4.51577 6.56753 3.28112 9.54824 3.28112 12.6562C3.28233 13.5721 3.39259 14.4845 3.60957 15.3743C2.70292 16.1758 2.10777 17.2712 1.92872 18.468C1.74966 19.6649 1.99816 20.8865 2.63054 21.9183C3.26293 22.9501 4.23872 23.7259 5.38646 24.1096C6.53419 24.4932 7.78041 24.4601 8.90612 24.0159V28.5938C8.90613 28.6618 8.92096 28.7291 8.94958 28.7908C8.9782 28.8526 9.01993 28.9073 9.07185 28.9513C9.12378 28.9953 9.18467 29.0275 9.25028 29.0456C9.31589 29.0637 9.38465 29.0672 9.45179 29.0561L14.9999 28.1314L20.5479 29.0561C20.5734 29.0603 20.5991 29.0624 20.6249 29.0625C20.7492 29.0625 20.8684 29.0131 20.9563 28.9252C21.0442 28.8373 21.0936 28.7181 21.0936 28.5938V24.0159C22.2192 24.459 23.4648 24.4915 24.612 24.1076C25.7591 23.7238 26.7343 22.9481 27.3664 21.9168C27.9986 20.8855 28.2473 19.6644 28.0688 18.468C27.8903 17.2716 27.2961 16.1764 26.3905 15.3744ZM14.9999 1.875C17.8583 1.87818 20.5987 3.01507 22.6199 5.03626C24.641 7.05745 25.7779 9.79786 25.7811 12.6562C25.782 13.5896 25.6596 14.5189 25.4172 15.4202C24.7731 17.8355 23.3127 19.9532 21.284 21.4136C20.996 21.6209 20.6978 21.8136 20.3905 21.991L20.3898 21.9915L20.3864 21.9937C20.1579 22.1287 19.9167 22.2501 19.7114 22.3507C18.2438 23.0658 16.6328 23.4374 15.0003 23.4375C13.3679 23.4376 11.7568 23.0661 10.2892 22.3512C10.0832 22.2501 9.84198 22.1287 9.60953 21.991C9.30137 21.8131 9.00235 21.6199 8.7136 21.412C6.68525 19.951 5.22537 17.8327 4.58209 15.4172C4.33984 14.5169 4.21763 13.5886 4.21862 12.6562C4.2218 9.79786 5.35869 7.05745 7.37988 5.03626C9.40107 3.01507 12.1415 1.87818 14.9999 1.875ZM7.03112 23.4375C6.21547 23.4376 5.41728 23.2012 4.73322 22.757C4.04915 22.3128 3.50855 21.6798 3.17687 20.9346C2.8452 20.1894 2.73668 19.3641 2.86446 18.5585C2.99224 17.7529 3.35084 17.0017 3.89682 16.3957C3.90653 16.4246 3.91979 16.452 3.92964 16.481C4.02896 16.7685 4.13696 17.0528 4.25837 17.3309C4.26868 17.3546 4.28035 17.3778 4.29085 17.4012C4.41398 17.6783 4.54768 17.95 4.69196 18.2165C4.70471 18.2399 4.71629 18.2642 4.72946 18.2877C4.87651 18.5549 5.03589 18.8153 5.20318 19.0702C5.22901 19.1097 5.25428 19.1494 5.28062 19.1886C5.44737 19.4363 5.62339 19.6773 5.80867 19.9117C5.83862 19.9497 5.86899 19.987 5.89946 20.0246C6.09039 20.2606 6.28913 20.4902 6.49778 20.7109C6.52023 20.7347 6.54367 20.7574 6.56631 20.7812C7.00762 21.2404 7.48564 21.6629 7.99562 22.0444C8.02585 22.0671 8.05534 22.0905 8.08585 22.1128C8.32854 22.2907 8.57854 22.4586 8.83585 22.6168C8.8599 22.6317 8.88203 22.6493 8.90617 22.6641V22.9982C8.32329 23.287 7.68161 23.4373 7.03112 23.4375ZM9.84362 23.2781V23.1765L9.87643 23.193C11.329 23.9042 12.9148 24.3025 14.5311 24.362V27.2592L9.84362 28.0403V23.2781ZM20.1561 28.0403L15.4686 27.2592V24.362C17.0851 24.3025 18.671 23.9041 20.1236 23.1926C20.1341 23.1876 20.1451 23.1821 20.1561 23.1766V28.0403ZM22.9686 23.4375C22.3181 23.4373 21.6765 23.2869 21.0936 22.998V22.6641C21.1167 22.65 21.1377 22.6332 21.1607 22.619C21.4177 22.46 21.6679 22.2918 21.9115 22.1145C21.9443 22.0905 21.9759 22.0654 22.0083 22.041C22.2609 21.8519 22.5073 21.6552 22.7432 21.4468L22.7471 21.4432C22.984 21.2337 23.2102 21.0129 23.4291 20.7855C23.4538 20.7598 23.4793 20.735 23.5038 20.7091C23.7115 20.4894 23.9092 20.2609 24.0991 20.0262C24.1301 19.988 24.161 19.95 24.1914 19.9114C24.3769 19.6764 24.5534 19.4348 24.7207 19.1867C24.7457 19.1495 24.7697 19.1117 24.7943 19.0742C24.9634 18.8164 25.1244 18.5539 25.2729 18.2835C25.2829 18.2653 25.2919 18.2466 25.3018 18.2283C25.4512 17.9529 25.5895 17.6716 25.7168 17.3845C25.7238 17.3687 25.7316 17.3534 25.7385 17.3377C25.8627 17.0535 25.9732 16.7633 26.0743 16.4693C26.0829 16.4444 26.0944 16.4207 26.1028 16.3957C26.6488 17.0016 27.0074 17.7529 27.1352 18.5584C27.263 19.364 27.1545 20.1894 26.8228 20.9345C26.4912 21.6797 25.9506 22.3127 25.2665 22.757C24.5825 23.2012 23.7843 23.4376 22.9686 23.4375Z" fill="#454545"/>
</svg>
