<svg width="24" height="24" viewBox="0 0 24 24" fill="none" xmlns="http://www.w3.org/2000/svg">
<path fill-rule="evenodd" clip-rule="evenodd" d="M12 3.375C7.23654 3.375 3.375 7.23654 3.375 12C3.375 16.7635 7.23654 20.625 12 20.625C16.7635 20.625 20.625 16.7635 20.625 12C20.625 7.23654 16.7635 3.375 12 3.375ZM2.625 12C2.625 6.82233 6.82233 2.625 12 2.625C17.1777 2.625 21.375 6.82233 21.375 12C21.375 17.1777 17.1777 21.375 12 21.375C6.82233 21.375 2.625 17.1777 2.625 12Z" fill="black"/>
<path fill-rule="evenodd" clip-rule="evenodd" d="M10.875 11.25C10.875 11.0429 11.0429 10.875 11.25 10.875H12C12.2071 10.875 12.375 11.0429 12.375 11.25V16.125H12.75C12.9571 16.125 13.125 16.2929 13.125 16.5C13.125 16.7071 12.9571 16.875 12.75 16.875H12C11.7929 16.875 11.625 16.7071 11.625 16.5V11.625H11.25C11.0429 11.625 10.875 11.4571 10.875 11.25Z" fill="black"/>
<path d="M11.8125 8.625C12.2267 8.625 12.5625 8.28921 12.5625 7.875C12.5625 7.46079 12.2267 7.125 11.8125 7.125C11.3983 7.125 11.0625 7.46079 11.0625 7.875C11.0625 8.28921 11.3983 8.625 11.8125 8.625Z" fill="black"/>
</svg>
