<svg width="21" height="20" viewBox="0 0 21 20" fill="none" xmlns="http://www.w3.org/2000/svg">
<path d="M8.9375 1.875C8.68886 1.875 8.4504 1.97377 8.27459 2.14959C8.09877 2.3254 8 2.56386 8 2.8125C8 3.06114 8.09877 3.2996 8.27459 3.47541C8.4504 3.65123 8.68886 3.75 8.9375 3.75H14.875C15.3723 3.75 15.8492 3.94754 16.2008 4.29917C16.5525 4.65081 16.75 5.12772 16.75 5.625V14.375C16.75 14.8723 16.5525 15.3492 16.2008 15.7008C15.8492 16.0525 15.3723 16.25 14.875 16.25H8.9375C8.68886 16.25 8.4504 16.3488 8.27459 16.5246C8.09877 16.7004 8 16.9389 8 17.1875C8 17.4361 8.09877 17.6746 8.27459 17.8504C8.4504 18.0262 8.68886 18.125 8.9375 18.125H14.875C15.8696 18.125 16.8234 17.7299 17.5267 17.0267C18.2299 16.3234 18.625 15.3696 18.625 14.375V5.625C18.625 4.63044 18.2299 3.67661 17.5267 2.97335C16.8234 2.27009 15.8696 1.875 14.875 1.875H8.9375ZM12.725 9.3375L9.6 6.2125C9.42228 6.0469 9.18722 5.95675 8.94435 5.96103C8.70147 5.96532 8.46974 6.06371 8.29797 6.23547C8.12621 6.40724 8.02782 6.63897 8.02353 6.88185C8.01925 7.12472 8.1094 7.35978 8.275 7.5375L9.8 9.0625H2.6875C2.43886 9.0625 2.2004 9.16127 2.02459 9.33709C1.84877 9.5129 1.75 9.75136 1.75 10C1.75 10.2486 1.84877 10.4871 2.02459 10.6629C2.2004 10.8387 2.43886 10.9375 2.6875 10.9375H9.8L8.275 12.4625C8.18289 12.5483 8.10901 12.6518 8.05777 12.7668C8.00653 12.8818 7.97898 13.006 7.97676 13.1318C7.97454 13.2577 7.9977 13.3828 8.04485 13.4995C8.092 13.6162 8.16218 13.7223 8.2512 13.8113C8.34023 13.9003 8.44627 13.9705 8.563 14.0177C8.67974 14.0648 8.80477 14.088 8.93065 14.0857C9.05653 14.0835 9.18067 14.056 9.29567 14.0047C9.41067 13.9535 9.51417 13.8796 9.6 13.7875L12.725 10.6625C12.9006 10.4867 12.9992 10.2484 12.9992 10C12.9992 9.75156 12.9006 9.51328 12.725 9.3375Z" fill="white"/>
</svg>
