<svg width="32" height="32" viewBox="0 0 32 32" fill="none" xmlns="http://www.w3.org/2000/svg">
<path d="M29.2602 3.6867C28.9727 3.4484 28.6261 3.29233 28.257 3.23506C27.888 3.17778 27.5104 3.22143 27.1642 3.36136L3.27486 13.0054C2.88882 13.164 2.56016 13.4363 2.33251 13.7861C2.10486 14.1359 1.98898 14.5467 2.00026 14.9639C2.01155 15.3811 2.14946 15.785 2.39568 16.122C2.64191 16.459 2.98481 16.7132 3.37886 16.8507L8.53353 18.64L11.3269 27.8747C11.3322 27.8934 11.3495 27.9054 11.3575 27.9227C11.3863 27.9964 11.4283 28.0642 11.4815 28.1227C11.5623 28.213 11.6667 28.279 11.7829 28.3134C11.7962 28.3187 11.8055 28.3307 11.8189 28.3334H11.8269L11.8309 28.3347C11.934 28.3569 12.0412 28.3514 12.1415 28.3187C12.1522 28.316 12.1629 28.316 12.1749 28.312C12.2712 28.2782 12.3584 28.2225 12.4295 28.1494C12.4375 28.14 12.4509 28.1387 12.4589 28.1307L16.4762 23.696L22.3389 28.236C22.6949 28.5147 23.1335 28.6654 23.5855 28.6654C24.5642 28.6654 25.4082 27.98 25.6095 27.024L29.9589 5.6667C30.0326 5.30413 30.0066 4.92834 29.8836 4.5794C29.7605 4.23046 29.5451 3.92146 29.2602 3.68536V3.6867ZM12.7842 20.3934L11.8415 24.976L9.87486 18.472L19.6282 13.392L12.9655 20.056C12.8733 20.1482 12.8102 20.2655 12.7842 20.3934ZM24.3029 26.756C24.2778 26.8769 24.2221 26.9894 24.1411 27.0825C24.0601 27.1757 23.9565 27.2465 23.8402 27.288C23.7268 27.3317 23.6039 27.3451 23.4837 27.3268C23.3636 27.3086 23.2502 27.2594 23.1549 27.184L16.8042 22.2654C16.6714 22.1629 16.5049 22.1142 16.3379 22.129C16.1708 22.1439 16.0155 22.2211 15.9029 22.3454L13.1069 25.4267L14.0482 20.8574L23.6335 11.2707C23.7458 11.1581 23.8141 11.009 23.8261 10.8505C23.8381 10.6919 23.7931 10.5343 23.6991 10.406C23.6051 10.2778 23.4684 10.1873 23.3136 10.151C23.1588 10.1147 22.9961 10.1349 22.8549 10.208L9.03753 17.4054L3.81486 15.5894C3.67638 15.5436 3.55561 15.4559 3.46934 15.3383C3.38307 15.2207 3.3356 15.0792 3.33353 14.9334C3.32688 14.7863 3.36619 14.6407 3.44599 14.517C3.52578 14.3932 3.64212 14.2974 3.77886 14.2427L27.6642 4.5987C27.7866 4.54669 27.9211 4.52987 28.0525 4.55013C28.184 4.57039 28.3071 4.62692 28.4082 4.71336C28.5087 4.79468 28.5846 4.90233 28.6274 5.02429C28.6703 5.14625 28.6784 5.27773 28.6509 5.40403L24.3029 26.7574V26.756Z" fill="#AD6A75"/>
</svg>
