<svg width="42" height="54" viewBox="0 0 42 54" fill="none" xmlns="http://www.w3.org/2000/svg">
<path d="M26.5668 22.49L26.0508 23.383C25.7758 23.86 25.7458 24.362 25.9838 24.499C26.2218 24.637 26.6418 24.359 26.9168 23.883L27.4328 22.99C27.7078 22.513 27.7378 22.011 27.4998 21.874C27.2618 21.736 26.8418 22.014 26.5668 22.49Z" fill="#464646"/>
<path d="M30.0002 28.514C30.1372 28.752 30.6392 28.723 31.1152 28.448L32.0082 27.932C32.4852 27.657 32.7622 27.237 32.6252 26.998C32.4872 26.761 31.9852 26.79 31.5092 27.065L30.6162 27.581C30.1402 27.856 29.8622 28.276 30.0002 28.514Z" fill="#464646"/>
<path d="M31.4702 33.999C31.4692 34.274 31.9202 34.499 32.4692 34.499H33.5002C34.0502 34.499 34.5002 34.274 34.5002 33.999C34.5002 33.724 34.0512 33.499 33.5002 33.499H32.4702C31.9202 33.499 31.4702 33.724 31.4702 33.999Z" fill="#464646"/>
<path d="M32.0078 40.066L31.1158 39.55C30.6388 39.275 30.1368 39.245 29.9998 39.484C29.8618 39.721 30.1388 40.141 30.6148 40.417L31.5078 40.933C31.9848 41.208 32.4868 41.238 32.6238 41C32.7618 40.762 32.4838 40.342 32.0078 40.066Z" fill="#464646"/>
<path d="M26.9168 44.115C26.6418 43.638 26.2218 43.361 25.9838 43.499C25.7458 43.637 25.7758 44.139 26.0508 44.615L26.5658 45.508C26.8408 45.985 27.2608 46.262 27.4988 46.124C27.7378 45.986 27.7068 45.484 27.4318 45.008L26.9168 44.115Z" fill="#464646"/>
<path d="M20.5 44.969C20.225 44.969 20 45.419 20 45.969V46.999C20 47.549 20.225 47.999 20.5 47.999C20.775 47.999 21 47.549 21 46.999V45.969C21 45.419 20.774 44.969 20.5 44.969Z" fill="#464646"/>
<path d="M14.082 44.115L13.566 45.007C13.291 45.484 13.261 45.986 13.499 46.123C13.737 46.26 14.157 45.983 14.432 45.507L14.948 44.615C15.223 44.138 15.253 43.636 15.015 43.499C14.777 43.362 14.356 43.639 14.082 44.115Z" fill="#464646"/>
<path d="M9.88299 39.551L8.98999 40.066C8.51299 40.341 8.23699 40.761 8.37399 40.999C8.51099 41.237 9.01399 41.208 9.48999 40.933L10.382 40.418C10.859 40.143 11.136 39.723 10.998 39.485C10.862 39.246 10.36 39.275 9.88299 39.551Z" fill="#464646"/>
<path d="M9.53002 33.999C9.53002 33.724 9.08002 33.499 8.53002 33.499L7.49902 33.498C6.94902 33.498 6.49902 33.724 6.49902 33.998C6.49902 34.273 6.95002 34.499 7.49902 34.499H8.52902C9.08002 34.499 9.53002 34.274 9.53002 33.999Z" fill="#464646"/>
<path d="M10.3832 27.581L9.49124 27.065C9.01424 26.79 8.51224 26.76 8.37524 26.998C8.23724 27.236 8.51524 27.656 8.99124 27.932L9.88324 28.448C10.3602 28.723 10.8622 28.753 10.9992 28.514C11.1372 28.276 10.8602 27.856 10.3832 27.581Z" fill="#464646"/>
<path d="M14.4329 22.49C14.1579 22.013 13.7379 21.736 13.4999 21.874C13.2619 22.012 13.2919 22.514 13.5669 22.99L14.0819 23.883C14.3569 24.36 14.7769 24.637 15.0149 24.499C15.2529 24.361 15.2229 23.859 14.9479 23.383L14.4329 22.49Z" fill="#464646"/>
<path d="M20.5 17.999C11.663 17.999 4.5 25.165 4.5 33.999C4.5 42.833 11.663 49.999 20.5 49.999C29.337 49.999 36.5 42.833 36.5 33.999C36.5 25.165 29.337 17.999 20.5 17.999ZM20.5 48.999C12.216 48.999 5.5 42.28 5.5 33.999C5.5 25.718 12.216 18.999 20.5 18.999C28.784 18.999 35.5 25.718 35.5 33.999C35.5 42.28 28.784 48.999 20.5 48.999Z" fill="#464646"/>
<path d="M38 18.498L38.5 18.998L41.5 15.998L38.5 12.998L35.5 15.998L36 16.498L33.593 18.905C30.555 16.269 26.727 14.52 22.5 14.1V13.682C25.387 12.819 27.5 10.167 27.5 6.99902C27.5 3.13202 24.367 -0.000976562 20.5 -0.000976562C16.633 -0.000976562 13.5 3.13202 13.5 6.99902C13.5 10.17 15.609 12.844 18.5 13.704V14.1C8.395 15.105 0.5 23.63 0.5 33.999C0.5 45.043 9.456 53.999 20.5 53.999C31.545 53.999 40.5 45.043 40.5 33.999C40.5 28.985 38.643 24.414 35.594 20.904L38 18.498ZM38.5 14.412L40.086 15.998L38.5 17.584L36.914 15.998L38.5 14.412ZM36.707 17.205L37.293 17.791L34.918 20.165C34.727 19.966 34.533 19.769 34.334 19.578L36.707 17.205ZM18.5 8.99902V5.99902H22.5V8.99902H18.5ZM21.5 9.99902V13.999H19.5V9.99902H21.5ZM14.5 6.99902C14.5 3.69002 17.191 0.999023 20.5 0.999023C23.809 0.999023 26.5 3.69002 26.5 6.99902C26.5 9.60302 24.823 11.801 22.5 12.629V9.99902H23.5V4.99902H17.5V9.99902H18.5V12.632C16.176 11.805 14.5 9.60402 14.5 6.99902ZM39.5 33.999C39.5 44.476 30.977 52.999 20.5 52.999C10.023 52.999 1.5 44.476 1.5 33.999C1.5 23.522 10.023 14.999 20.5 14.999C30.977 14.999 39.5 23.522 39.5 33.999Z" fill="#464646"/>
<path d="M20.88 22.656C20.951 22.483 21 22.269 21 22.029V20.998C21 20.448 20.775 19.998 20.5 19.998C20.225 19.998 20 20.448 20 20.998V22.029C20 22.269 20.049 22.483 20.12 22.656L18.755 32.213C18.29 32.666 18 33.298 18 33.999C18 35.38 19.119 36.499 20.5 36.499C21.881 36.499 23 35.38 23 33.999C23 33.298 22.71 32.666 22.245 32.213L20.88 22.656ZM20.5 27.069L21.146 31.593C20.938 31.537 20.725 31.498 20.5 31.498C20.275 31.498 20.061 31.537 19.854 31.593L20.5 27.069ZM20.5 35.499C19.672 35.499 19 34.826 19 33.999C19 33.172 19.672 32.499 20.5 32.499C21.328 32.499 22 33.172 22 33.999C22 34.826 21.328 35.499 20.5 35.499Z" fill="#464646"/>
</svg>
