<svg width="32" height="22" viewBox="0 0 32 22" fill="none" xmlns="http://www.w3.org/2000/svg">
<path d="M0.09375 3.75C0.09375 2.5625 0.90625 2.09375 1.90625 2.03125L6.5625 2.0625C6.84375 2.0625 7.09375 2.25 7.1875 2.53125C8.25 5.96875 9.5625 8.09375 11.125 10.5C11.2188 10.6875 11.375 10.7812 11.5312 10.7812C11.6562 10.7812 11.7812 10.7188 11.875 10.5625L11.9688 10.2188L12 4.8125C12 4.03125 11.625 3.90625 10.75 3.78125C10.4062 3.71875 10.1875 3.40625 10.1875 3.09375C10.1875 3.03125 10.1875 2.96875 10.2188 2.90625C10.6562 1.5625 12.0312 0.875 13.9688 0.875L15.7188 0.84375C17.1562 0.84375 18.4688 1.46875 18.4688 3.3125V10.4062C18.5938 10.5 18.7188 10.5625 18.875 10.5625C19.125 10.5625 19.4375 10.4062 19.6875 10C21.3125 7.71875 23.1562 5 23.4062 3.5625C23.4062 3.5 23.4375 3.46875 23.4688 3.40625C23.8125 2.71875 24.6875 2.25 25.0625 2.125C25.125 2.09375 25.2188 2.0625 25.3438 2.0625H30.1875L30.5 2.09375C30.9688 2.09375 31.3125 2.40625 31.4688 2.6875C31.75 3.125 31.6875 3.59375 31.7188 3.78125V4C31.25 6.84375 28 10.0312 26.625 12.0938C26.4375 12.3438 26.3438 12.5625 26.3438 12.7812C26.3438 12.9688 26.4375 13.1562 26.5938 13.3438L31.1562 19.0938C31.4062 19.4375 31.5312 19.8438 31.5312 20.1875C31.5312 21.2188 30.5625 21.8125 29.625 21.9062L29.0938 21.9375H24.3438C24.25 21.9375 24.1875 21.9688 24.0938 21.9688C23.5625 21.9688 23.125 21.6875 22.8125 21.375C21.8125 20.1562 20.8438 18.9062 19.875 17.6875C19.6875 17.4375 19.625 17.4062 19.4375 17.2812C19.2188 18.1875 19.0312 19.125 18.8125 20.0625L18.7188 20.5938C18.5625 21.1562 18.1562 21.75 17.4062 21.9062L16.9688 21.9375H13.9062C8.5 21.9375 3.65625 14.25 0.25 4.65625C0.15625 4.40625 0.09375 4.0625 0.09375 3.75ZM18.875 11.8438C18.0625 11.8438 17.1562 11.375 17.1562 10.5V3.3125C17.1562 2.46875 16.7812 2.15625 15.75 2.15625L13.9688 2.21875C12.9688 2.21875 12.4062 2.375 11.9375 2.6875C12.6562 3.03125 13.3125 3.5 13.3125 4.8125V10.3125C13.2188 11.4062 12.3125 12.125 11.4375 12.125C10.8438 12.125 10.3125 11.7812 10 11.2188C8.59375 9.09375 7.40625 7.09375 6.375 4.21875L6.09375 3.40625L1.9375 3.375C1.375 3.375 1.4375 3.40625 1.4375 3.6875C1.4375 3.875 1.46875 4.125 1.5 4.28125L2.15625 6.03125C5.5625 14.8438 9.84375 20.625 13.9062 20.625H17.0312C17.4688 20.625 17.4375 20.0938 17.5312 19.7812L18.125 17.0312C18.25 16.75 18.3438 16.5 18.5625 16.2812C18.8125 16.0312 19.0938 15.9375 19.375 15.9375C19.9688 15.9375 20.5312 16.4062 20.9062 16.8438L23.5625 20.2188C23.7812 20.5625 23.9688 20.625 24.0938 20.625H29.25C29.75 20.625 30.1875 20.4688 30.1875 20.1562C30.1875 20.0625 30.1562 19.9375 30.0938 19.8438L25.5625 14.1875C25.1875 13.7188 25.0312 13.25 25.0312 12.7812C25.0312 12.2812 25.2188 11.7812 25.5312 11.3438C26.8438 9.375 29.6562 6.5625 30.3125 4.25L30.4062 3.84375C30.375 3.6875 30.375 3.5625 30.3438 3.40625H25.4375C25.125 3.53125 24.875 3.71875 24.6875 3.96875L24.5 4.5625C23.7812 6.5625 21.8125 9.3125 20.4062 11.2188C19.9375 11.6562 19.4062 11.8438 18.875 11.8438Z" fill="#6B6B6B"/>
</svg>
