<svg width="31" height="28" viewBox="0 0 31 28" fill="none" xmlns="http://www.w3.org/2000/svg">
<path fill-rule="evenodd" clip-rule="evenodd" d="M31 24.2923C31 26.1114 29.4918 27.5854 27.6304 27.5854H3.36957C1.50822 27.5854 0 26.1114 0 24.2923V5.19192C0 3.737 1.20698 2.55739 2.69565 2.55739H16.2892L21.7472 0.62496C22.0929 0.501796 22.4757 0.676334 22.6017 1.0129L23.1765 2.55739H25.6087C27.0974 2.55739 28.3043 3.737 28.3043 5.19192V6.50919C29.793 6.50919 31 7.6888 31 9.14372V24.2923ZM2.69565 3.87466C1.95165 3.87466 1.34783 4.46479 1.34783 5.19192C1.34783 5.91905 1.95165 6.50919 2.69565 6.50919H5.01728H5.14465C5.15341 6.5059 5.1588 6.49865 5.16757 6.49536L12.5685 3.87466H2.69565ZM22.2917 3.99387L21.576 2.06803L20.1931 2.55739H20.1952L16.4792 3.87466H16.4725L9.03313 6.50919H23.2271L22.2917 3.99387ZM26.9565 5.19192C26.9565 4.46479 26.3527 3.87466 25.6087 3.87466H23.6658L24.6457 6.50919H26.9565V5.19192ZM28.3043 7.82646H2.69565C2.20235 7.82646 1.74543 7.68748 1.34783 7.46091V24.2923C1.34783 25.3836 2.25357 26.2682 3.36957 26.2682H27.6304C28.7471 26.2682 29.6522 25.3836 29.6522 24.2923V19.6819H26.9565C25.4678 19.6819 24.2609 18.5022 24.2609 17.0473C24.2609 15.5924 25.4678 14.4128 26.9565 14.4128H29.6522V9.14372C29.6522 8.41659 29.0483 7.82646 28.3043 7.82646ZM29.6522 18.3646V15.7301H26.9565C26.2125 15.7301 25.6087 16.3202 25.6087 17.0473C25.6087 17.7745 26.2125 18.3646 26.9565 18.3646H29.6522ZM26.9565 16.3887H28.3043V17.706H26.9565V16.3887Z" fill="#6B6B6B"/>
</svg>
